<svg width="58" height="54" viewBox="0 0 58 54" fill="none" xmlns="http://www.w3.org/2000/svg">
<g clip-path="url(#clip0_1_151)">
<path fill-rule="evenodd" clip-rule="evenodd" d="M58.0755 9.76123C49.4762 13.98 45.1765 18.937 45.1765 24.6323C48.8418 25.0542 51.8727 26.5483 54.2693 29.1147C56.6658 31.6812 57.864 34.6518 57.864 38.0269C57.864 41.6128 56.701 44.6362 54.375 47.0972C52.0489 49.5581 49.1238 50.7886 45.5995 50.7886C41.6522 50.7886 38.2337 49.189 35.3437 45.9897C32.4538 42.7905 31.0088 38.9058 31.0088 34.3354C31.0088 20.6244 38.6917 9.9019 54.0578 2.16748L58.0755 9.76123ZM27.112 9.76123C18.4421 13.98 14.1073 18.937 14.1073 24.6323C17.8431 25.0542 20.9092 26.5483 23.3057 29.1147C25.7022 31.6812 26.9005 34.6518 26.9005 38.0269C26.9005 41.6128 25.7199 44.6362 23.3586 47.0972C20.9973 49.5581 18.0545 50.7886 14.5302 50.7886C10.5829 50.7886 7.18202 49.189 4.32732 45.9897C1.47262 42.7905 0.0452881 38.9058 0.0452881 34.3354C0.0452881 20.6244 7.69296 9.9019 22.9885 2.16748L27.112 9.76123Z" fill="#D6D6D6"/>
</g>
<defs>
<clipPath id="clip0_1_151">
<rect width="58" height="54" fill="white" transform="translate(0 -0.243164)"/>
</clipPath>
</defs>
</svg>
